<?xml version="1.0" encoding="utf-8"?>
<!-- Generator: Adobe Illustrator 18.0.0, SVG Export Plug-In . SVG Version: 6.00 Build 0)  -->
<!DOCTYPE svg PUBLIC "-//W3C//DTD SVG 1.1//EN" "http://www.w3.org/Graphics/SVG/1.1/DTD/svg11.dtd">
<svg version="1.1" id="Layer_1" xmlns="http://www.w3.org/2000/svg" xmlns:xlink="http://www.w3.org/1999/xlink" x="0px" y="0px"
	 viewBox="0 0 841.9 62.4" enable-background="new 0 0 841.9 62.4" xml:space="preserve">
<g>
	<polygon points="304.1,1.9 332.4,30.1 360.8,1.9 360.8,60.6 350.3,60.6 350.3,28.1 332.4,45.9 314.6,28.1 314.6,60.6 304.1,60.6 	
		"/>
	<polygon points="201.1,36.4 201.1,26.2 201.1,3 245.3,3 245.3,13.2 211.8,13.2 211.8,26.2 235.1,26.2 235.1,36.4 211.8,36.4 
		211.8,50.9 245.3,50.9 245.3,61 201.1,61 	"/>
	<polygon points="180.5,3 167,3 143.4,32.1 167,61 180.5,61 156.1,32.1 	"/>
	<rect x="132.8" y="3" width="10.6" height="58"/>
	<polygon points="666,3.2 676.6,3.2 676.6,51 705,51 705,61.1 666,61.1 	"/>
	<polygon points="725.5,36.5 725.5,26.3 725.5,3.2 769.6,3.2 769.6,13.3 736.1,13.3 736.1,26.3 759.4,26.3 759.4,36.5 736.1,36.5 
		736.1,51 769.6,51 769.6,61.1 725.5,61.1 	"/>
	<path d="M407.5,0l28,60.6H424l-4.4-10.5h-24.3l-4.4,10.5h-11.3L407.5,0z M415.9,40.8l-8.3-19l-8.4,19H415.9z"/>
	<path d="M544.9,0l28,60.6h-11.5L557,50.1h-24.3l-4.4,10.5h-11.3L544.9,0z M553.3,40.8l-8.3-19l-8.4,19H553.3z"/>
	<path d="M502.5,50.4c-6.4,8.1-15.4,11.9-24.5,11.9c-17.2,0-30.9-13.2-30.9-30.2c0-17,13.6-30.2,30.9-30.2c9.2,0,18.1,3.8,24.5,11.9
		l-8.8,6.7c-3.7-5.4-9.2-8.4-15.7-8.4c-10.3,0-19.7,8.8-19.7,20c0,11.3,9.3,20,19.7,20c6.5,0,12.3-3,15.9-8L502.5,50.4z"/>
	<path d="M589.9,3.2h10.6v32.1c0,10.6,6.7,17,14.9,17c8.3,0,14.9-6.4,14.9-17V3.2H641v34.4c0,13.4-10.2,24.8-25.5,24.8
		c-15.4,0-25.5-11.4-25.5-24.8V3.2z"/>
	<polygon points="810.7,35.6 790.1,3.2 802.3,3.2 816,25.7 829.6,3.2 841.9,3.2 821.3,35.6 821.3,61.2 810.7,61.2 	"/>
	<polygon points="0,3 10.6,3 10.6,50.9 39,50.9 39,61 0,61 	"/>
	<path d="M57.1,3h10.6v32.1c0,10.6,6.7,17,14.9,17c8.3,0,14.9-6.4,14.9-17V3h10.6v34.4c0,13.4-10.2,24.8-25.5,24.8
		c-15.4,0-25.5-11.5-25.5-24.8V3z"/>
</g>
</svg>
